<svg width="134" height="225" fill="none" xmlns="http://www.w3.org/2000/svg"><path d="M39.437 65.505H66.89c6.677 0 15.485 0 20.033 2.762 4.988 2.968 8.904 8.368 8.904 15.802 0 8.052-4.232 14.098-11.24 16.956v.219c9.33 1.91 14.414 8.904 14.414 18.234 0 11.13-7.955 21.738-23.001 21.738H39.437v-75.71Zm10.072 32.538h20.157c11.446 0 16.118-4.136 16.118-12.092 0-10.498-7.42-11.982-16.118-11.982H49.51v24.074Zm0 34.668H74.75c8.684 0 14.208-5.304 14.208-13.562 0-9.866-7.956-12.614-16.434-12.614H49.51v26.176Z" fill="#000"/><path d="M124.766 103.374c0 31.796-25.778 57.574-57.587 57.574-31.796 0-57.573-25.778-57.573-57.574 0-31.795 25.777-57.573 57.573-57.573 31.81.014 57.587 25.791 57.587 57.573Zm-57.573-66.34C30.573 37.035.88 66.729.88 103.348s29.694 66.312 66.313 66.312c36.632 0 66.326-29.693 66.326-66.312s-29.694-66.312-66.326-66.312ZM133.367 183.661H1.004v8.698h132.363v-8.698ZM129.231 174.084c.165 0 .316-.014.467-.014.138-.014.275-.041.385-.082a.662.662 0 0 0 .275-.234c.069-.11.096-.247.096-.426 0-.151-.027-.289-.082-.371a.487.487 0 0 0-.234-.206 1.015 1.015 0 0 0-.33-.11c-.123-.014-.233-.014-.371-.014h-.948v1.471h.742v-.014Zm.316-2.061c.55 0 .948.11 1.223.329.261.22.399.55.399 1.004 0 .425-.124.714-.344.92-.233.193-.522.302-.879.344l1.319 2.033h-.77l-1.264-1.992h-.756v1.992h-.728v-4.617h1.8v-.013Zm-3.243 3.641c.152.412.385.783.687 1.085a3.23 3.23 0 0 0 1.031.715c.385.165.824.247 1.278.247.467 0 .893-.082 1.278-.247a3.214 3.214 0 0 0 1.03-.715c.289-.302.522-.659.674-1.085.164-.412.261-.852.261-1.333s-.083-.921-.261-1.333a3.563 3.563 0 0 0-.674-1.072 3.262 3.262 0 0 0-1.03-.7 3.267 3.267 0 0 0-2.556 0 3.262 3.262 0 0 0-1.031.7c-.302.303-.522.66-.687 1.072a3.504 3.504 0 0 0-.247 1.333c-.014.467.069.921.247 1.333Zm-.659-2.899c.206-.481.495-.88.852-1.237.357-.357.783-.618 1.264-.824a3.858 3.858 0 0 1 1.525-.303c.55 0 1.058.096 1.553.303.467.206.893.467 1.237.824.357.357.659.769.851 1.237.22.481.316 1.003.316 1.566 0 .563-.096 1.086-.316 1.567a3.884 3.884 0 0 1-.851 1.264 3.8 3.8 0 0 1-1.237.838 4.22 4.22 0 0 1-1.553.288 4.074 4.074 0 0 1-1.525-.288c-.481-.206-.907-.467-1.264-.838a3.886 3.886 0 0 1-.852-1.264c-.22-.481-.302-1.004-.302-1.567a3.501 3.501 0 0 1 .302-1.566ZM17.053 7.877a5.105 5.105 0 0 0-1.168-1.32 5.484 5.484 0 0 0-1.594-.892 5.595 5.595 0 0 0-1.855-.316c-1.181 0-2.184.233-3.023.687a5.619 5.619 0 0 0-2.006 1.84 8.15 8.15 0 0 0-1.126 2.639c-.234.99-.358 2.006-.358 3.05 0 1.004.11 1.98.358 2.927.233.948.604 1.8 1.126 2.57a5.707 5.707 0 0 0 2.006 1.827c.825.454 1.828.687 3.023.687 1.608 0 2.872-.494 3.765-1.47.907-.99 1.457-2.28 1.663-3.889h5.098c-.138 1.498-.481 2.845-1.045 4.054-.563 1.21-1.291 2.24-2.212 3.078A9.572 9.572 0 0 1 16.49 25.3c-1.223.44-2.583.673-4.054.673-1.827 0-3.476-.316-4.946-.962a10.495 10.495 0 0 1-3.71-2.638C2.777 21.26 2.007 19.941 1.47 18.43c-.536-1.512-.81-3.133-.81-4.878 0-1.787.26-3.45.81-4.974.536-1.526 1.306-2.872 2.309-3.999C4.783 3.44 6.02 2.545 7.49 1.9c1.456-.645 3.105-.975 4.946-.975 1.32 0 2.57.192 3.738.563 1.168.385 2.226.935 3.146 1.663a9.092 9.092 0 0 1 2.295 2.693c.605 1.072.99 2.309 1.14 3.683h-5.097a4.255 4.255 0 0 0-.605-1.65ZM29.817 21.26c.715.688 1.745 1.045 3.078 1.045.962 0 1.786-.234 2.487-.715.687-.48 1.113-.99 1.278-1.525h4.191c-.673 2.075-1.704 3.573-3.092 4.466-1.387.893-3.064 1.346-5.029 1.346-1.36 0-2.597-.22-3.682-.66a7.88 7.88 0 0 1-2.79-1.854c-.755-.797-1.346-1.759-1.758-2.886-.413-1.113-.619-2.35-.619-3.682 0-1.292.206-2.501.632-3.614.426-1.113 1.031-2.089 1.814-2.9a8.564 8.564 0 0 1 2.803-1.923c1.086-.467 2.281-.7 3.6-.7 1.47 0 2.762.288 3.861.851 1.1.577 1.993 1.333 2.694 2.295.7.962 1.209 2.06 1.525 3.284a11.96 11.96 0 0 1 .33 3.861H28.636c.068 1.498.453 2.624 1.181 3.311Zm5.373-9.11c-.577-.618-1.443-.934-2.597-.934-.756 0-1.388.124-1.896.385-.509.26-.907.577-1.21.948a3.527 3.527 0 0 0-.631 1.21 5.693 5.693 0 0 0-.22 1.14h7.75c-.22-1.21-.619-2.13-1.196-2.749ZM47.818 8.083v3.215h.068a5.82 5.82 0 0 1 .907-1.498c.385-.453.811-.851 1.306-1.167a6.687 6.687 0 0 1 1.58-.756 5.713 5.713 0 0 1 1.745-.261c.316 0 .66.055 1.044.165v4.424a8.367 8.367 0 0 0-.81-.11c-.316-.027-.619-.055-.907-.055-.866 0-1.608.151-2.213.44a3.779 3.779 0 0 0-1.456 1.195 4.662 4.662 0 0 0-.783 1.76 9.959 9.959 0 0 0-.234 2.184v7.818h-4.754V8.083h4.507ZM67.192 8.083v3.188h-3.49v8.588c0 .81.137 1.346.398 1.607.262.262.811.399 1.608.399.275 0 .522-.014.77-.027.247-.028.48-.056.7-.097v3.683c-.398.069-.852.11-1.346.137-.495.028-.976.041-1.443.041-.742 0-1.443-.055-2.089-.15-.66-.097-1.236-.29-1.745-.592-.508-.288-.893-.7-1.195-1.236-.289-.536-.44-1.237-.44-2.116V11.285h-2.885V8.097h2.885V2.903h4.755v5.194h3.517v-.014ZM69.968 5.404v-3.93h4.754v3.93h-4.754Zm4.754 2.679V25.41h-4.754V8.083h4.754ZM76.618 11.27V8.084h2.845V6.736c0-1.539.48-2.803 1.442-3.792.962-.99 2.419-1.47 4.356-1.47.426 0 .852.014 1.278.055.426.027.838.068 1.237.082V5.17a14.378 14.378 0 0 0-1.745-.096c-.646 0-1.114.15-1.388.453-.275.303-.412.81-.412 1.525v1.045h3.284v3.188H84.23v14.152h-4.768V11.285h-2.845v-.014ZM90.73 5.404v-3.93h4.754v3.93H90.73Zm4.768 2.679V25.41H90.73V8.083h4.768ZM103 21.26c.715.687 1.745 1.044 3.078 1.044.962 0 1.786-.233 2.487-.714.687-.481 1.113-.99 1.278-1.525h4.191c-.673 2.075-1.704 3.572-3.078 4.465-1.388.894-3.064 1.347-5.029 1.347-1.36 0-2.597-.22-3.683-.66a7.875 7.875 0 0 1-2.789-1.854c-.756-.797-1.347-1.76-1.759-2.886-.412-1.113-.618-2.35-.618-3.683 0-1.291.22-2.5.632-3.613.426-1.154 1.03-2.116 1.814-2.927a8.561 8.561 0 0 1 2.803-1.924c1.085-.467 2.281-.7 3.6-.7 1.47 0 2.762.288 3.861.851 1.099.577 1.992 1.333 2.693 2.295.701.962 1.209 2.061 1.525 3.284.316 1.223.426 2.515.344 3.861h-12.504c.055 1.525.44 2.652 1.154 3.34Zm5.386-9.11c-.563-.618-1.442-.934-2.597-.934-.755 0-1.387.123-1.896.385-.508.26-.907.577-1.209.948a3.54 3.54 0 0 0-.632 1.209 5.708 5.708 0 0 0-.22 1.14h7.736c-.22-1.209-.618-2.13-1.182-2.748ZM128.791 23.211c-.563.935-1.291 1.622-2.198 2.034-.907.412-1.924.618-3.064.618-1.292 0-2.432-.247-3.422-.755-.989-.509-1.8-1.182-2.432-2.048a9.628 9.628 0 0 1-1.443-2.968 12.265 12.265 0 0 1-.481-3.49c0-1.168.165-2.28.481-3.366a8.823 8.823 0 0 1 1.443-2.872 7.172 7.172 0 0 1 2.391-1.992c.962-.509 2.075-.756 3.353-.756 1.03 0 2.006.22 2.926.66.935.44 1.663 1.071 2.199 1.923h.069V1.487h4.754v23.937h-4.521V23.21h-.055Zm-.206-8.574c-.137-.66-.357-1.236-.687-1.745a3.845 3.845 0 0 0-1.264-1.223c-.508-.316-1.168-.467-1.937-.467-.77 0-1.443.151-1.979.467a3.841 3.841 0 0 0-1.292 1.237 5.743 5.743 0 0 0-.7 1.759 9.15 9.15 0 0 0-.22 2.06c0 .674.082 1.347.233 2.007a5.56 5.56 0 0 0 .756 1.8c.344.522.783.948 1.305 1.278.523.33 1.155.48 1.897.48.783 0 1.429-.15 1.965-.466a3.593 3.593 0 0 0 1.264-1.265c.316-.522.536-1.126.673-1.786.137-.673.206-1.36.206-2.075a11.112 11.112 0 0 0-.22-2.06ZM12.615 209.439c-.234-1.677-1.842-2.955-3.683-2.955-3.325 0-4.576 2.831-4.576 5.785 0 2.803 1.25 5.634 4.576 5.634 2.267 0 3.545-1.553 3.82-3.779h3.6c-.385 4.205-3.284 6.898-7.42 6.898-5.221 0-8.286-3.902-8.286-8.753 0-5.001 3.065-8.904 8.286-8.904 3.71 0 6.815 2.171 7.269 6.074h-3.586ZM24.088 208.092c3.847 0 6.32 2.542 6.32 6.444 0 3.875-2.473 6.417-6.32 6.417-3.82 0-6.307-2.556-6.307-6.417 0-3.888 2.487-6.444 6.307-6.444Zm0 10.347c2.295 0 2.968-1.965 2.968-3.889 0-1.965-.687-3.916-2.968-3.916-2.267 0-2.954 1.965-2.954 3.916 0 1.924.687 3.889 2.954 3.889ZM32.484 208.408h3.188v2.267h.054c.605-1.539 2.268-2.597 3.903-2.597.233 0 .522.041.728.11v3.119a6.45 6.45 0 0 0-1.21-.11c-2.459 0-3.31 1.773-3.31 3.916v5.496h-3.353v-12.201ZM41.662 208.422h3.188v1.552h.041c.797-1.291 2.117-1.882 3.628-1.882 3.834 0 5.551 3.092 5.551 6.554 0 3.257-1.786 6.307-5.359 6.307-1.456 0-2.858-.632-3.655-1.841h-.055v5.812H41.65v-16.502h.013Zm9.056 6.142c0-1.938-.784-3.944-2.927-3.944-2.199 0-2.9 1.965-2.9 3.944 0 1.978.756 3.875 2.927 3.875 2.199 0 2.9-1.897 2.9-3.875ZM61.422 208.092c3.847 0 6.334 2.542 6.334 6.444 0 3.875-2.487 6.417-6.334 6.417-3.82 0-6.294-2.556-6.294-6.417 0-3.888 2.474-6.444 6.294-6.444Zm0 10.347c2.294 0 2.981-1.965 2.981-3.889 0-1.965-.687-3.916-2.981-3.916-2.268 0-2.955 1.965-2.955 3.916.014 1.924.701 3.889 2.955 3.889ZM69.83 208.408h3.189v2.267h.055c.604-1.539 2.267-2.597 3.888-2.597.234 0 .522.041.728.11v3.119c-.302-.069-.796-.11-1.209-.11-2.46 0-3.311 1.773-3.311 3.916v5.496h-3.353v-12.201h.014ZM78.68 212.173c.192-3.147 2.995-4.081 5.743-4.081 2.432 0 5.359.536 5.359 3.463v6.348c0 1.113.11 2.212.426 2.72H86.8c-.11-.384-.22-.783-.233-1.181-1.059 1.113-2.611 1.511-4.109 1.511-2.308 0-4.15-1.154-4.15-3.655 0-2.762 2.075-3.421 4.15-3.71 2.061-.302 3.971-.233 3.971-1.607 0-1.443-1.003-1.649-2.171-1.649-1.278 0-2.102.522-2.226 1.841H78.68Zm7.735 2.487c-.577.495-1.745.522-2.789.715-1.044.206-1.979.563-1.979 1.8 0 1.25.962 1.552 2.061 1.552 2.611 0 2.721-2.075 2.721-2.803v-1.264h-.014ZM96.543 208.422h2.46v2.239h-2.46v6.046c0 1.141.288 1.415 1.415 1.415.357 0 .687-.027 1.044-.096v2.625c-.563.096-1.305.123-1.965.123-2.047 0-3.847-.481-3.847-2.899v-7.2h-2.034v-2.24h2.034v-3.655h3.353v3.642ZM104.883 206.539h-3.353v-2.762h3.353v2.762Zm-3.353 1.883h3.353v12.201h-3.353v-12.201ZM113.43 208.092c3.847 0 6.334 2.542 6.334 6.444 0 3.875-2.487 6.417-6.334 6.417-3.82 0-6.294-2.556-6.294-6.417 0-3.888 2.474-6.444 6.294-6.444Zm0 10.347c2.294 0 2.981-1.965 2.981-3.889 0-1.965-.687-3.916-2.981-3.916-2.268 0-2.955 1.965-2.955 3.916 0 1.924.687 3.889 2.955 3.889ZM121.922 208.422h3.187v1.704h.069c.852-1.374 2.309-2.034 3.738-2.034 3.558 0 4.465 2.006 4.465 5.029v7.502h-3.352v-6.897c0-2.006-.591-2.996-2.144-2.996-1.827 0-2.597 1.017-2.597 3.504v6.403h-3.353v-12.215h-.013Z" fill="#000"/></svg>