
<svg version="1.1" id="logo" xmlns="http://www.w3.org/2000/svg" xmlns:xlink="http://www.w3.org/1999/xlink" x="0px" y="0px"
	 width="296px" height="360px" viewBox="0 0 296 360" enable-background="new 0 0 296 360" xml:space="preserve">
<g>
	<g>
		<circle id="logoCircle" fill="#FFFFFF" fill-opacity="0" cx="148" cy="172" r="60"/>
		<g id="logoSmallCircle" transform="matrix(0,0,0,0,148,180)">
			<path fill="none" stroke="#FFFFFF" stroke-width="2" stroke-opacity="0" d="M148,172L44,212l192,88L148,172z M148,172L60,68
				l104-24L148,172z M148,172l112-8L108,300L148,172z"/>
			<circle fill="#FFFFFF" cx="108" cy="300" r="12"/>
			<circle fill="#FFFFFF" cx="236" cy="300" r="36"/>
			<g opacity="0">
				<path fill-rule="evenodd" clip-rule="evenodd" fill="#D40F7D" d="M232.5,301.8c-0.5-0.3-1.2-0.1-1.4,0.4
					c-0.3,0.5-0.1,1.1,0.4,1.4c0.5,0.3,1.2,0.1,1.4-0.4C233.2,302.7,233.1,302.1,232.5,301.8z"/>
				<path fill-rule="evenodd" clip-rule="evenodd" d="M242,285.6c-5.7-3.3-13-1.3-16.3,4.3c-3.3,5.7-1.3,12.9,4.4,16.2l2.1,1.2
					l0.4-0.7l-2.1-1.2c-1.5-0.9-2-2.8-1.2-4.3l8-13.7c0.9-1.5,2.8-2,4.3-1.2c1.5,0.9,2,2.8,1.2,4.3l-5.6,9.6l-1.8,3l-0.6,1.1
					l-0.6,1.1L228,316h10.1l8.3-14.2C249.6,296.1,247.7,288.9,242,285.6z"/>
			</g>
			<circle fill="#FFFFFF" cx="44" cy="212" r="20"/>
			<circle fill="#FFFFFF" cx="260" cy="164" r="12"/>
			<circle fill="#FFFFFF" cx="164" cy="44" r="20"/>
			<circle fill="#FFFFFF" cx="60" cy="68" r="12"/>
		</g>
		<g id="logoText" transform="matrix(3.3,0,0,3.3,-340.32064,-416.95469)">
			<path d="M139.5,158.1h8.4c2,0,4.7,0,6.1,0.8c1.5,0.9,2.7,2.6,2.7,4.8c0,2.5-1.3,4.3-3.4,5.2v0.1c2.9,0.6,4.4,2.7,4.4,5.6
				c0,3.4-2.4,6.7-7,6.7h-11.2V158.1z M142.6,168h6.2c3.5,0,4.9-1.3,4.9-3.7c0-3.2-2.3-3.7-4.9-3.7h-6.2V168z M142.6,178.6h7.7
				c2.7,0,4.3-1.6,4.3-4.2c0-3-2.4-3.9-5-3.9h-7V178.6z"/>
			<path d="M165.6,169.7c0,9.7-7.9,17.6-17.6,17.6c-9.7,0-17.6-7.9-17.6-17.6c0-9.7,7.9-17.6,17.6-17.6
				C157.7,152,165.6,159.9,165.6,169.7z M148,149.4c-11.2,0-20.3,9.1-20.3,20.3c0,11.2,9.1,20.3,20.3,20.3
				c11.2,0,20.3-9.1,20.3-20.3C168.3,158.4,159.2,149.4,148,149.4z"/>
			<path d="M168.3,194.2h-40.5v2.7h40.5V194.2z"/>
			<path d="M167,191.3c0.1,0,0.1,0,0.1,0c0,0,0.1,0,0.1,0c0,0,0.1,0,0.1-0.1c0,0,0-0.1,0-0.1c0,0,0-0.1,0-0.1c0,0,0-0.1-0.1-0.1
				c0,0-0.1,0-0.1,0c0,0-0.1,0-0.1,0h-0.3v0.4L167,191.3L167,191.3z M167.1,190.7c0.2,0,0.3,0,0.4,0.1c0.1,0.1,0.1,0.2,0.1,0.3
				c0,0.1,0,0.2-0.1,0.3c-0.1,0.1-0.2,0.1-0.3,0.1l0.4,0.6h-0.2l-0.4-0.6h-0.2v0.6h-0.2v-1.4L167.1,190.7L167.1,190.7z M166.1,191.8
				c0,0.1,0.1,0.2,0.2,0.3c0.1,0.1,0.2,0.2,0.3,0.2c0.1,0.1,0.3,0.1,0.4,0.1c0.1,0,0.3,0,0.4-0.1c0.1-0.1,0.2-0.1,0.3-0.2
				c0.1-0.1,0.2-0.2,0.2-0.3c0.1-0.1,0.1-0.3,0.1-0.4c0-0.1,0-0.3-0.1-0.4c-0.1-0.1-0.1-0.2-0.2-0.3c-0.1-0.1-0.2-0.2-0.3-0.2
				c-0.1-0.1-0.3-0.1-0.4-0.1c-0.1,0-0.3,0-0.4,0.1c-0.1,0.1-0.2,0.1-0.3,0.2c-0.1,0.1-0.2,0.2-0.2,0.3c-0.1,0.1-0.1,0.3-0.1,0.4
				C166,191.5,166,191.7,166.1,191.8z M165.9,190.9c0.1-0.1,0.2-0.3,0.3-0.4c0.1-0.1,0.2-0.2,0.4-0.3c0.1-0.1,0.3-0.1,0.5-0.1
				c0.2,0,0.3,0,0.5,0.1c0.1,0.1,0.3,0.1,0.4,0.3c0.1,0.1,0.2,0.2,0.3,0.4c0.1,0.1,0.1,0.3,0.1,0.5c0,0.2,0,0.3-0.1,0.5
				c-0.1,0.2-0.2,0.3-0.3,0.4c-0.1,0.1-0.2,0.2-0.4,0.3c-0.2,0.1-0.3,0.1-0.5,0.1c-0.2,0-0.3,0-0.5-0.1c-0.1-0.1-0.3-0.1-0.4-0.3
				c-0.1-0.1-0.2-0.2-0.3-0.4c-0.1-0.1-0.1-0.3-0.1-0.5C165.8,191.2,165.8,191.1,165.9,190.9z"/>
			<path d="M132.7,140.4c-0.1-0.2-0.2-0.3-0.4-0.4c-0.1-0.1-0.3-0.2-0.5-0.3c-0.2-0.1-0.4-0.1-0.6-0.1c-0.4,0-0.7,0.1-0.9,0.2
				c-0.3,0.1-0.5,0.3-0.6,0.6c-0.2,0.2-0.3,0.5-0.3,0.8c-0.1,0.3-0.1,0.6-0.1,0.9c0,0.3,0,0.6,0.1,0.9c0.1,0.3,0.2,0.6,0.3,0.8
				c0.2,0.2,0.4,0.4,0.6,0.6c0.3,0.1,0.6,0.2,0.9,0.2c0.5,0,0.9-0.2,1.2-0.5c0.3-0.3,0.4-0.7,0.5-1.2h1.6c0,0.5-0.1,0.9-0.3,1.2
				c-0.2,0.4-0.4,0.7-0.7,0.9c-0.3,0.3-0.6,0.5-1,0.6c-0.4,0.1-0.8,0.2-1.2,0.2c-0.6,0-1.1-0.1-1.5-0.3c-0.5-0.2-0.8-0.5-1.1-0.8
				c-0.3-0.3-0.5-0.7-0.7-1.2c-0.2-0.5-0.2-1-0.2-1.5c0-0.5,0.1-1.1,0.2-1.5c0.2-0.5,0.4-0.9,0.7-1.2c0.3-0.3,0.7-0.6,1.1-0.8
				c0.4-0.2,1-0.3,1.5-0.3c0.4,0,0.8,0.1,1.1,0.2c0.4,0.1,0.7,0.3,1,0.5c0.3,0.2,0.5,0.5,0.7,0.8c0.2,0.3,0.3,0.7,0.3,1.1h-1.6
				C132.8,140.8,132.7,140.6,132.7,140.4z"/>
			<path d="M136.6,144.5c0.2,0.2,0.5,0.3,0.9,0.3c0.3,0,0.5-0.1,0.8-0.2c0.2-0.1,0.3-0.3,0.4-0.5h1.3c-0.2,0.6-0.5,1.1-0.9,1.4
				c-0.4,0.3-0.9,0.4-1.5,0.4c-0.4,0-0.8-0.1-1.1-0.2c-0.3-0.1-0.6-0.3-0.9-0.6c-0.2-0.2-0.4-0.5-0.5-0.9c-0.1-0.3-0.2-0.7-0.2-1.1
				c0-0.4,0.1-0.8,0.2-1.1c0.1-0.3,0.3-0.6,0.6-0.9c0.2-0.2,0.5-0.4,0.9-0.6c0.3-0.1,0.7-0.2,1.1-0.2c0.4,0,0.8,0.1,1.2,0.3
				c0.3,0.2,0.6,0.4,0.8,0.7c0.2,0.3,0.4,0.6,0.5,1c0.1,0.4,0.1,0.8,0.1,1.2h-3.8C136.2,144,136.3,144.3,136.6,144.5z M138.2,141.7
				c-0.2-0.2-0.4-0.3-0.8-0.3c-0.2,0-0.4,0-0.6,0.1c-0.2,0.1-0.3,0.2-0.4,0.3c-0.1,0.1-0.2,0.2-0.2,0.4c0,0.1-0.1,0.2-0.1,0.3h2.4
				C138.5,142.2,138.4,141.9,138.2,141.7z"/>
			<path d="M142.1,140.5v1h0c0.1-0.2,0.2-0.3,0.3-0.5c0.1-0.1,0.2-0.3,0.4-0.4c0.2-0.1,0.3-0.2,0.5-0.2c0.2-0.1,0.3-0.1,0.5-0.1
				c0.1,0,0.2,0,0.3,0v1.4c-0.1,0-0.2,0-0.2,0c-0.1,0-0.2,0-0.3,0c-0.3,0-0.5,0-0.7,0.1s-0.3,0.2-0.4,0.4c-0.1,0.2-0.2,0.3-0.2,0.5
				c0,0.2-0.1,0.4-0.1,0.7v2.4h-1.5v-5.3H142.1z"/>
			<path d="M148,140.5v1h-1.1v2.6c0,0.2,0,0.4,0.1,0.5c0.1,0.1,0.2,0.1,0.5,0.1c0.1,0,0.2,0,0.2,0c0.1,0,0.1,0,0.2,0v1.1
				c-0.1,0-0.3,0-0.4,0c-0.2,0-0.3,0-0.4,0c-0.2,0-0.4,0-0.6,0c-0.2,0-0.4-0.1-0.5-0.2c-0.2-0.1-0.3-0.2-0.4-0.4
				c-0.1-0.2-0.1-0.4-0.1-0.6v-3.1h-0.9v-1h0.9v-1.6h1.5v1.6L148,140.5L148,140.5z"/>
			<path d="M148.8,139.7v-1.2h1.5v1.2H148.8z M150.3,140.5v5.3h-1.5v-5.3H150.3z"/>
			<path d="M150.9,141.5v-1h0.9v-0.4c0-0.5,0.1-0.9,0.4-1.2c0.3-0.3,0.7-0.4,1.3-0.4c0.1,0,0.3,0,0.4,0c0.1,0,0.3,0,0.4,0v1.1
				c-0.2,0-0.3,0-0.5,0c-0.2,0-0.3,0-0.4,0.1c-0.1,0.1-0.1,0.2-0.1,0.5v0.3h1v1h-1v4.3h-1.5v-4.3L150.9,141.5L150.9,141.5z"/>
			<path d="M155.2,139.7v-1.2h1.5v1.2H155.2z M156.7,140.5v5.3h-1.5v-5.3H156.7z"/>
			<path d="M159,144.5c0.2,0.2,0.5,0.3,0.9,0.3c0.3,0,0.5-0.1,0.8-0.2c0.2-0.1,0.3-0.3,0.4-0.5h1.3c-0.2,0.6-0.5,1.1-0.9,1.4
				c-0.4,0.3-0.9,0.4-1.5,0.4c-0.4,0-0.8-0.1-1.1-0.2c-0.3-0.1-0.6-0.3-0.9-0.6c-0.2-0.2-0.4-0.5-0.5-0.9c-0.1-0.3-0.2-0.7-0.2-1.1
				c0-0.4,0.1-0.8,0.2-1.1c0.1-0.4,0.3-0.6,0.6-0.9c0.2-0.2,0.5-0.4,0.9-0.6s0.7-0.2,1.1-0.2c0.5,0,0.8,0.1,1.2,0.3
				c0.3,0.2,0.6,0.4,0.8,0.7c0.2,0.3,0.4,0.6,0.5,1c0.1,0.4,0.1,0.8,0.1,1.2h-3.8C158.6,144,158.7,144.3,159,144.5z M160.6,141.7
				c-0.2-0.2-0.4-0.3-0.8-0.3c-0.2,0-0.4,0-0.6,0.1c-0.2,0.1-0.3,0.2-0.4,0.3c-0.1,0.1-0.2,0.2-0.2,0.4c0,0.1-0.1,0.2-0.1,0.3h2.4
				C160.9,142.2,160.8,141.9,160.6,141.7z"/>
			<path d="M166.9,145.1c-0.2,0.3-0.4,0.5-0.7,0.6c-0.3,0.1-0.6,0.2-0.9,0.2c-0.4,0-0.7-0.1-1-0.2c-0.3-0.2-0.6-0.4-0.7-0.6
				c-0.2-0.3-0.3-0.6-0.4-0.9c-0.1-0.3-0.1-0.7-0.1-1.1c0-0.4,0-0.7,0.1-1c0.1-0.3,0.2-0.6,0.4-0.9c0.2-0.3,0.4-0.5,0.7-0.6
				c0.3-0.2,0.6-0.2,1-0.2c0.3,0,0.6,0.1,0.9,0.2c0.3,0.1,0.5,0.3,0.7,0.6h0v-2.7h1.5v7.3h-1.4L166.9,145.1L166.9,145.1z
				 M166.8,142.5c0-0.2-0.1-0.4-0.2-0.5c-0.1-0.2-0.2-0.3-0.4-0.4c-0.2-0.1-0.4-0.1-0.6-0.1c-0.2,0-0.4,0-0.6,0.1s-0.3,0.2-0.4,0.4
				c-0.1,0.2-0.2,0.3-0.2,0.5c0,0.2-0.1,0.4-0.1,0.6c0,0.2,0,0.4,0.1,0.6c0,0.2,0.1,0.4,0.2,0.6c0.1,0.2,0.2,0.3,0.4,0.4
				c0.2,0.1,0.4,0.1,0.6,0.1c0.2,0,0.4,0,0.6-0.1c0.2-0.1,0.3-0.2,0.4-0.4c0.1-0.2,0.2-0.3,0.2-0.5c0-0.2,0.1-0.4,0.1-0.6
				C166.9,142.9,166.8,142.7,166.8,142.5z"/>
			<path d="M131.3,202.1c-0.1-0.5-0.6-0.9-1.1-0.9c-1,0-1.4,0.9-1.4,1.8c0,0.9,0.4,1.7,1.4,1.7c0.7,0,1.1-0.5,1.2-1.2h1.1
				c-0.1,1.3-1,2.1-2.3,2.1c-1.6,0-2.5-1.2-2.5-2.7c0-1.5,0.9-2.7,2.5-2.7c1.1,0,2.1,0.7,2.2,1.9H131.3z"/>
			<path d="M134.8,201.7c1.2,0,1.9,0.8,1.9,2c0,1.2-0.8,2-1.9,2c-1.2,0-1.9-0.8-1.9-2C132.9,202.5,133.6,201.7,134.8,201.7z
				 M134.8,204.9c0.7,0,0.9-0.6,0.9-1.2c0-0.6-0.2-1.2-0.9-1.2c-0.7,0-0.9,0.6-0.9,1.2C133.9,204.3,134.1,204.9,134.8,204.9z"/>
			<path d="M137.4,201.8h1v0.7h0c0.2-0.5,0.7-0.8,1.2-0.8c0.1,0,0.2,0,0.2,0v1c-0.1,0-0.2,0-0.4,0c-0.8,0-1,0.5-1,1.2v1.7h-1V201.8z
				"/>
			<path d="M140.2,201.8h1v0.5h0c0.2-0.4,0.6-0.6,1.1-0.6c1.2,0,1.7,0.9,1.7,2c0,1-0.5,1.9-1.6,1.9c-0.4,0-0.9-0.2-1.1-0.6h0v1.8h-1
				L140.2,201.8L140.2,201.8z M143,203.7c0-0.6-0.2-1.2-0.9-1.2c-0.7,0-0.9,0.6-0.9,1.2c0,0.6,0.2,1.2,0.9,1.2
				C142.7,204.9,143,204.3,143,203.7z"/>
			<path d="M146.2,201.7c1.2,0,1.9,0.8,1.9,2c0,1.2-0.8,2-1.9,2c-1.2,0-1.9-0.8-1.9-2C144.3,202.5,145.1,201.7,146.2,201.7z
				 M146.2,204.9c0.7,0,0.9-0.6,0.9-1.2c0-0.6-0.2-1.2-0.9-1.2c-0.7,0-0.9,0.6-0.9,1.2C145.3,204.3,145.5,204.9,146.2,204.9z"/>
			<path d="M148.8,201.8h1v0.7h0c0.2-0.5,0.7-0.8,1.2-0.8c0.1,0,0.2,0,0.2,0v1c-0.1,0-0.2,0-0.4,0c-0.8,0-1,0.5-1,1.2v1.7h-1
				L148.8,201.8L148.8,201.8z"/>
			<path d="M151.5,203c0.1-1,0.9-1.2,1.8-1.2c0.7,0,1.6,0.2,1.6,1.1v1.9c0,0.3,0,0.7,0.1,0.8h-1c0-0.1-0.1-0.2-0.1-0.4
				c-0.3,0.3-0.8,0.5-1.3,0.5c-0.7,0-1.3-0.4-1.3-1.1c0-0.8,0.6-1,1.3-1.1c0.6-0.1,1.2-0.1,1.2-0.5c0-0.4-0.3-0.5-0.7-0.5
				c-0.4,0-0.6,0.2-0.7,0.6H151.5z M153.9,203.7c-0.2,0.2-0.5,0.2-0.9,0.2c-0.3,0.1-0.6,0.2-0.6,0.6c0,0.4,0.3,0.5,0.6,0.5
				c0.8,0,0.8-0.6,0.8-0.9L153.9,203.7L153.9,203.7z"/>
			<path d="M157,201.8h0.8v0.7H157v1.9c0,0.3,0.1,0.4,0.4,0.4c0.1,0,0.2,0,0.3,0v0.8c-0.2,0-0.4,0-0.6,0c-0.6,0-1.2-0.1-1.2-0.9
				v-2.2h-0.6v-0.7h0.6v-1.1h1V201.8z"/>
			<path d="M159.5,201.2h-1v-0.8h1V201.2z M158.5,201.8h1v3.7h-1V201.8z"/>
			<path d="M162.2,201.7c1.2,0,1.9,0.8,1.9,2c0,1.2-0.8,2-1.9,2c-1.2,0-1.9-0.8-1.9-2C160.2,202.5,161,201.7,162.2,201.7z
				 M162.2,204.9c0.7,0,0.9-0.6,0.9-1.2c0-0.6-0.2-1.2-0.9-1.2c-0.7,0-0.9,0.6-0.9,1.2C161.2,204.3,161.5,204.9,162.2,204.9z"/>
			<path d="M164.8,201.8h1v0.5h0c0.3-0.4,0.7-0.6,1.1-0.6c1.1,0,1.4,0.6,1.4,1.5v2.3h-1v-2.1c0-0.6-0.2-0.9-0.7-0.9
				c-0.6,0-0.8,0.3-0.8,1.1v2h-1L164.8,201.8L164.8,201.8z"/>
		</g>
	</g>
</g>
</svg>
